<svg xmlns="http://www.w3.org/2000/svg" xmlns:xlink="http://www.w3.org/1999/xlink" viewBox="0 0 24 24" fill="#EEEEEE">
  <path d="M5 3 A 2 2 0 0 0 3 5 A 2 2 0 0 0 4 6.7304688L4 10.832031 A 1.0001 1.0001 0 0 0 4 11.158203L4 15.271484 A 2 2 0 0 0 3 17 A 2 2 0 0 0 5 19 A 2 2 0 0 0 7 17 A 2 2 0 0 0 6 15.269531L6 12L11 12L11 15.269531 A 2 2 0 0 0 10 17 A 2 2 0 0 0 12 19 A 2 2 0 0 0 14 17 A 2 2 0 0 0 13 15.271484L13 12L18 12L18 17.271484 A 2 2 0 0 0 17 19 A 2 2 0 0 0 19 21 A 2 2 0 0 0 21 19 A 2 2 0 0 0 20 17.269531L20 11.167969 A 1.0001 1.0001 0 0 0 20 10.841797L20 6.7285156 A 2 2 0 0 0 21 5 A 2 2 0 0 0 19 3 A 2 2 0 0 0 17 5 A 2 2 0 0 0 18 6.7304688L18 10L13 10L13 6.7285156 A 2 2 0 0 0 14 5 A 2 2 0 0 0 12 3 A 2 2 0 0 0 10 5 A 2 2 0 0 0 11 6.7304688L11 10L6 10L6 6.7285156 A 2 2 0 0 0 7 5 A 2 2 0 0 0 5 3 z" fill="#EEEEEE" />
</svg>